<svg version="1.1" xmlns="http://www.w3.org/2000/svg" style="display: block;" viewBox="0 0 2048 2048" width="1024" height="1024" preserveAspectRatio="none">
<path transform="translate(0,0)" fill="rgb(0,0,0)" d="M 921.351 414.126 C 931.049 413.993 937.91 416.682 944.787 423.665 C 991.051 470.642 990.689 715.685 987.126 787.733 C 985.528 819.912 983.357 852.06 980.614 884.162 C 979.588 895.738 975.423 939.162 975.285 946.775 C 974.797 973.783 1025.49 1050.73 1043.22 1069.17 C 1051.28 1060.09 1063.57 1048.58 1072.44 1039.71 C 1088.88 1023.26 1105.17 1006.66 1121.31 989.904 L 1378 727.502 C 1410.74 693.773 1443.09 659.672 1475.05 625.205 C 1494.01 604.875 1512.74 582.938 1533.05 564.295 C 1537 561.072 1547.5 562.637 1547.09 568.523 C 1546.2 578.77 1533.59 590.338 1526.53 597.864 C 1449.06 678.159 1384.58 771.185 1311.23 854.801 C 1234.3 942.502 1169.7 1032.76 1100.12 1125.86 C 1182.82 1202.83 1296.11 1164.34 1377.41 1109.25 C 1388.93 1101.45 1405.86 1085.24 1419.8 1086.07 C 1423.09 1087.9 1422.07 1086.59 1423.17 1089.98 C 1420.07 1111.83 1329.16 1157.2 1307.64 1166.53 C 1293.53 1172.78 1278.86 1177.69 1263.82 1181.2 C 1196.46 1196.27 1145.95 1174.17 1090.76 1139.15 C 1080.6 1155.1 1067.95 1172.62 1057.14 1188.37 C 1020.03 1243.01 982.465 1297.58 948.04 1353.95 C 933.166 1378.3 914.276 1408.06 904.759 1434.71 C 888.678 1479.74 856.921 1622.94 826.607 1649.22 C 822.941 1652.4 818.326 1654.81 813.343 1654.12 C 810.362 1653.7 807.6 1652.23 806.025 1649.58 C 798.489 1636.9 816.759 1585.91 822.246 1573.14 C 841.863 1527.47 869.556 1484.74 887.068 1438.24 C 896.342 1413.61 899.336 1384.9 904.081 1359.04 C 912.874 1311.87 921.219 1264.61 929.117 1217.28 C 888.727 1257.24 847.779 1302.18 808.391 1343.43 L 613.293 1546.28 C 602.347 1557.65 549.744 1616.09 542.195 1620.18 C 539.594 1621.59 536.303 1622.64 533.451 1621.31 C 530.679 1620.02 528.413 1616.3 527.978 1613.31 C 526.803 1605.26 537.773 1593.3 542.698 1587.53 C 564.347 1562.17 589.118 1539.38 612.981 1516.14 C 624.778 1504.65 636.101 1492.65 647.607 1480.87 L 846.589 1273.77 C 864.385 1254.87 882.313 1236.09 900.372 1217.45 C 910.507 1207 926.156 1192.54 934.419 1181.27 C 940.692 1136.01 944.016 1091.35 949.543 1046.38 C 951.869 1028.53 954.306 1010.7 956.854 992.876 C 957.561 987.785 961.418 963.033 960.15 959.382 C 946.437 918.649 930.295 876.68 920.322 834.635 C 905.672 772.871 892.219 700.718 886.461 637.61 C 882.781 597.279 876.686 427.912 921.351 414.126 z M 959.918 910.64 L 964.436 922.204 C 968.216 902.369 969.22 881.768 970.858 861.662 C 973.467 829.617 975.932 797.457 976.427 765.297 C 977.476 697.066 973.052 492.809 937.641 440.288 C 935.338 436.872 931.92 431.916 927.633 430.995 C 926.643 430.782 926.259 430.785 925.313 430.723 C 910.576 440.828 905.798 470.808 902.691 487.568 C 882.317 597.463 922.07 805.672 959.918 910.64 z M 946.933 1197.91 C 938.805 1257.74 928.34 1327.92 914.647 1386.65 C 919.396 1378.8 924.607 1370.52 929.045 1362.54 C 962.006 1307.4 995.692 1252.69 1030.09 1198.43 C 1045.42 1174.76 1063.07 1151.25 1077.72 1128.35 C 1068.06 1118.61 1054.94 1104.59 1044.95 1095.79 C 1027.9 1111.84 1009.92 1131.27 993.467 1148.23 C 978.586 1163.58 960.211 1181.67 946.933 1197.91 z M 864.339 1520.74 C 855.871 1537.87 818.221 1609.61 821.996 1623.22 C 837.181 1603.54 857.903 1548.7 864.517 1521.61 C 864.458 1521.32 864.398 1521.03 864.339 1520.74 z M 972.972 985.579 C 966.992 1024.23 963.562 1065.45 958.878 1104.37 C 956.689 1122.56 955.743 1144.06 952.781 1161.79 C 962.919 1151.89 972.942 1141.87 982.848 1131.73 C 994.245 1119.94 1022.53 1092.2 1031.61 1080.66 C 1013.43 1053.65 996.019 1027.18 980.494 998.522 C 978.533 994.902 975.335 988.611 972.972 985.579 z M 1087.68 1115.1 C 1131.04 1054.03 1184 983.689 1230.13 925.061 L 1279.33 863.36 C 1284.34 857.11 1300.16 838.111 1303.49 832.14 L 1303.28 831.017 L 1128.74 1008.65 L 1082.31 1056.14 C 1075.75 1062.9 1060.97 1077.79 1055.72 1085.09 C 1061.1 1090.07 1066.41 1095.13 1071.65 1100.26 C 1076.72 1105.12 1082.29 1110.72 1087.68 1115.1 z"/>
<path transform="translate(0,0)" fill="rgb(181,180,180)" fill-opacity="0.00784314" d="M 1303.28 831.017 L 1303.49 832.14 C 1300.16 838.111 1284.34 857.11 1279.33 863.36 L 1230.13 925.061 C 1184 983.689 1131.04 1054.03 1087.68 1115.1 C 1082.29 1110.72 1076.72 1105.12 1071.65 1100.26 C 1066.41 1095.13 1061.1 1090.07 1055.72 1085.09 C 1060.97 1077.79 1075.75 1062.9 1082.31 1056.14 L 1128.74 1008.65 L 1303.28 831.017 z"/>
<path transform="translate(0,0)" fill="rgb(86,86,86)" fill-opacity="0.00784314" d="M 864.339 1520.74 C 864.398 1521.03 864.458 1521.32 864.517 1521.61 C 857.903 1548.7 837.181 1603.54 821.996 1623.22 C 818.221 1609.61 855.871 1537.87 864.339 1520.74 z"/>
</svg>