<svg xmlns="http://www.w3.org/2000/svg" viewBox="0 0 2048 2048" aria-labelledby="sigTitle" role="img">
  <title id="sigTitle">White Stylized Signature</title>
  <!-- Background -->
  <rect width="2048" height="2048" fill="#374591"/>
  
  <!-- Main Signature - evenodd ensures the loops stay empty -->
  <path fill="#fff" fill-rule="evenodd" d="M921.4 414.1c9.7-.1 16.6 2.6 23.4 9.6 46.3 47 45.9 292 42.4 364-.6 32.2-2.8 64.4-5.5 96.5-1 11.6-5.2 55-5.3 62.6-.5 27 50.2 104 67.9 122.4 8.1-9.1 20.4-20.6 29.2-29.5 16.4-16.5 32.7-33.1 48.9-49.8L1378 727.5c32.7-33.7 65.1-67.8 97.1-102.3 19-20.3 37.7-42.3 58-60.9 4-3.2 14.5-1.6 14.1 4.2-.9 10.3-13.5 21.8-20.6 29.4-77.5 80.3-142 173.3-215.3 256.9-76.9 87.7-141.5 178-211.1 271.1 82.7 77 196 38.5 277.3-16.6 11.5-7.8 28.4-24 42.4-23.2 3.3 1.8 2.3.5 3.4 3.9-3.1 21.9-94 67.2-115.5 76.5-14.1 6.3-28.8 11.3-43.8 14.8-67.4 15.1-117.9-7-173.1-42-10.2 15.9-22.8 33.5-33.6 49.2-37.1 54.6-74.7 109.2-109.1 165.6-14.9 24.3-33.8 54.1-43.3 80.8-16.1 45-47.8 188.2-78.1 214.5-3.7 3.2-8.3 5.6-13.3 4.9-3-.4-5.7-1.9-7.3-4.5-7.5-12.7 10.8-63.7 16.3-76.5 19.6-45.7 47.2-88.4 64.7-134.9 9.3-24.6 12.3-53.3 17-79.2 8.8-47.2 17.1-94.4 25-141.7-40.4 40-81.3 84.9-120.7 126.1L613.3 1546.3c-11 11.4-63.6 69.8-71.1 73.9-2.6 1.4-5.9 2.5-8.8 1.1-2.8-1.3-5-5-5.5-8-1.2-8 9.8-20 14.7-25.8 21.6-25.4 46.4-48.2 70.3-71.4 11.8-11.5 23.1-23.5 34.6-35.3l199-207.1c17.8-18.9 35.7-37.7 53.8-56.3 10.1-10.4 25.7-24.9 34-36.2 6.3-45.3 9.6-89.9 15.1-134.9 2.3-17.9 4.8-35.7 7.3-53.5.7-5.1 4.6-29.9 3.3-33.5-13.7-40.7-29.8-82.7-39.8-124.7-14.7-61.8-28.2-133.9-33.9-197-3.7-40.3-9.8-209.7 34.9-223.5zm38.6 496.5l4.5 11.6c3.8-19.8 4.8-40.4 6.4-60.5 2.6-32.1 5.1-64.2 5.6-96.4 1-68.2-3.4-272.5-38.8-325-2.3-3.4-5.7-8.4-10-9.3-1-.2-1.4-.2-2.3-.3-14.7 10.1-19.5 40.1-22.6 56.9-20.4 109.9 19.4 318.1 57.2 423zm-13 287.3c-8.1 59.8-18.6 130-32.3 188.7 4.7-7.8 10-16.1 14.4-24.1 33-55.1 66.7-109.8 101.1-164.1 15.3-23.7 33-47.2 47.6-70.1-9.7-9.7-22.8-23.7-32.8-32.5-17.1 16.1-35 35.5-51.5 52.5-14.9 15.3-33.3 33.4-46.5 49.6zm-82.6 322.8c-8.5 17.1-46.1 88.9-42.3 102.5 15.2-19.7 35.9-74.5 42.5-101.6l-.2-.9zm108.6-535.1c-6 38.6-9.4 79.9-14.1 118.8-2.2 18.2-3.1 39.7-6.1 57.4 10.1-9.9 20.1-19.9 30-30 11.4-11.8 39.7-39.5 48.8-51-18.2-27-35.6-53.5-51.1-82.2-2-3.6-5.2-9.9-7.5-13zm114.7 129.5c43.4-61.1 96.3-131.4 142.5-190.1l49.2-61.7c5-6.3 20.8-25.3 24.2-31.3l-.2-1.1-174.6 177.6-46.4 47.5c-6.6 6.8-21.3 21.6-26.6 28.9 5.4 5 10.7 10 16 15.2 5.1 4.8 10.7 10.4 16 14.8z"/>
  
  <!-- Smoothing Paths -->
  <path fill="#fff" fill-opacity=".01" d="M1303.3 831l.2 1.1c-3.3 6-19.1 25-24.2 31.3l-49.2 61.7c-46.1 58.7-99.1 129-142.5 190.1-5.4-4.4-11-10-16-14.8-5.2-5.1-10.5-10.2-15.7-15.2 5.3-7.3 20-22.1 26.6-28.9l46.4-47.5L1303.3 831zM864.3 1520.7c.1.3.2.6.2.9-6.6 27.1-27.3 81.9-42.5 101.6-3.8-13.6 33.8-85.3 42.3-102.5z"/>
</svg>
